<?xml version="1.0" encoding="UTF-8"?>
<svg width="285px" height="400px" viewBox="0 0 285 400" version="1.1" xmlns="http://www.w3.org/2000/svg" xmlns:xlink="http://www.w3.org/1999/xlink">
    <title>Group 2</title>
    <defs>
        <path d="M17.3031113,0.273348519 L109.793062,0.273348519 C118.663378,0.273348519 125.854191,7.10631548 125.854191,15.5352074 L125.854191,224.464793 C125.854191,232.893685 118.663378,239.726651 109.793062,239.726651 L17.3031113,239.726651 C8.43279458,239.726651 1.24198215,232.893685 1.24198215,224.464793 L1.24198215,15.5352074 C1.24198215,7.10631548 8.43279458,0.273348519 17.3031113,0.273348519 Z" id="path-1"></path>
        <filter x="-86.3%" y="-44.9%" width="312.7%" height="210.7%" filterUnits="objectBoundingBox" id="filter-2">
            <feOffset dx="25" dy="25" in="SourceAlpha" result="shadowOffsetOuter1"></feOffset>
            <feGaussianBlur stdDeviation="40" in="shadowOffsetOuter1" result="shadowBlurOuter1"></feGaussianBlur>
            <feColorMatrix values="0 0 0 0 0.212302148   0 0 0 0 0.325209598   0 0 0 0 0.419299139  0 0 0 0.300726617 0" type="matrix" in="shadowBlurOuter1"></feColorMatrix>
        </filter>
        <linearGradient x1="50%" y1="0%" x2="50%" y2="100%" id="linearGradient-3">
            <stop stop-color="#454545" offset="0%"></stop>
            <stop stop-color="#999999" offset="22.6279115%"></stop>
            <stop stop-color="#FFFFFF" offset="100%"></stop>
        </linearGradient>
        <linearGradient x1="100%" y1="50%" x2="30.7016324%" y2="50%" id="linearGradient-4">
            <stop stop-color="#FFFFFF" stop-opacity="0" offset="0%"></stop>
            <stop stop-color="#BABABA" offset="22.2177934%"></stop>
            <stop stop-color="#FFFFFF" stop-opacity="0" offset="54.6780492%"></stop>
            <stop stop-color="#FFFFFF" stop-opacity="0" offset="100%"></stop>
        </linearGradient>
        <linearGradient x1="100%" y1="50%" x2="30.5908702%" y2="50%" id="linearGradient-5">
            <stop stop-color="#FFFFFF" stop-opacity="0" offset="0%"></stop>
            <stop stop-color="#BABABA" offset="22.2177934%"></stop>
            <stop stop-color="#FFFFFF" stop-opacity="0" offset="54.6780492%"></stop>
            <stop stop-color="#FFFFFF" stop-opacity="0" offset="100%"></stop>
        </linearGradient>
        <path d="M45.2705727,0 L9.28395354,0 C3.91327198,0 0,3.63038052 0,8.37187835 L0,211.118913 C0,217.3013 6.04671861,222.779043 12.8840349,222.779043 L99.6185063,222.779043 C106.204743,222.779043 112.502541,217.258752 112.502541,211.118913 L112.502541,8.91992028 C112.502541,3.23689634 108.251469,0.0337956797 103.218588,0 L66.6614496,0 C66.5229255,0.0225304531 64.0116892,1.04723982 62.9503228,3.63038052 C61.8889563,6.21352123 59.7533683,8.27272697 57.4152258,8.27272697 L54.6995468,8.27272697 C53.5881166,8.27272697 50.6621028,7.20247298 49.1804768,3.63038052 C47.6988508,0.058288066 45.4090968,0.0225304531 45.2705727,0 Z" id="path-6"></path>
        <linearGradient x1="50%" y1="0%" x2="50%" y2="99.2214816%" id="linearGradient-8">
            <stop stop-color="#9CB6CD" offset="0%"></stop>
            <stop stop-color="#9AB3CA" offset="42.0563811%"></stop>
            <stop stop-color="#557496" offset="71.6592002%"></stop>
            <stop stop-color="#475178" offset="100%"></stop>
        </linearGradient>
    </defs>
    <g id="Designs" stroke="none" stroke-width="1" fill="none" fill-rule="evenodd">
        <g id="Mobile---Home" transform="translate(-70.000000, -55.000000)">
            <g id="iPhone-X-Mockup" transform="translate(124.000000, 110.000000)">
                <g id="phone">
                    <g id="body">
                        <use fill="black" fill-opacity="1" filter="url(#filter-2)" xlink:href="#path-1"></use>
                        <use fill="#213648" fill-rule="evenodd" xlink:href="#path-1"></use>
                    </g>
                    <g id="frame" transform="translate(1.241982, 0.000000)">
                        <path d="M108.908705,0 L15.6483697,0 C11.2942918,0.263498633 7.27871868,2.23532962 3.60165035,5.91549296 C5.96642315,3.86682961 10.1842368,1.12539085 15.7606058,1.12539085 C75.3061283,1.12539085 106.318083,1.12539085 108.796469,1.12539085 C114.372838,1.12539085 118.590652,3.86682961 120.955424,5.91549296 C117.278356,2.23532962 113.262783,0.263498633 108.908705,0 Z" id="reflect-frame-top" fill-opacity="0.649999976" fill="url(#linearGradient-3)" opacity="0.595561594"></path>
                        <path d="M122.088532,222.081995 L122.088532,16.7912442 C122.088532,11.283117 120.048768,9.24691685 118.831942,7.93942721 C117.615116,6.63193756 117.563325,5.96505919 119.311694,6.9522432 C121.060063,7.93942721 124.557075,10.8146548 124.557075,16.7912442 L124.557075,222.081995 C124.557075,228.058585 121.060063,230.933812 119.311694,231.920996 C117.563325,232.90818 117.615116,232.241302 118.831942,230.933812 C120.048768,229.626323 122.088532,227.590122 122.088532,222.081995 Z" id="reflect-frame-right" fill="url(#linearGradient-4)" opacity="0.75"></path>
                        <path d="M4.13448297,222.081995 L4.13448297,16.7912442 C4.13448297,11.283117 2.09471875,9.24691685 0.877892939,7.93942721 C-0.338932866,6.63193756 -0.390724287,5.96505919 1.35764505,6.9522432 C3.10601439,7.93942721 6.60302565,10.8146548 6.60302565,16.7912442 L6.60302565,222.081995 C6.60302565,228.058585 3.10601439,230.933812 1.35764505,231.920996 C-0.390724287,232.90818 -0.338932866,232.241302 0.877892939,230.933812 C2.09471875,229.626323 4.13448297,227.590122 4.13448297,222.081995 Z" id="reflect-frame-left" fill="url(#linearGradient-5)" opacity="0.75" transform="translate(3.301513, 119.436620) scale(-1, 1) translate(-3.301513, -119.436620) "></path>
                    </g>
                    <g id="controls" transform="translate(0.000000, 48.656036)" fill="#2E423C">
                        <path d="M1.20055012,0.0910814886 C1.86359564,0.0910814886 2.40110023,0.628586085 2.40110023,1.29163161 L2.40110023,29.7789141 C2.40110023,30.4419596 1.86359564,30.9794642 1.20055012,30.9794642 C0.537504596,30.9794642 -3.4184046e-15,30.4419596 0,29.7789141 L0,1.29163161 C-8.11996575e-17,0.628586085 0.537504596,0.0910814886 1.20055012,0.0910814886 Z" id="vol+"></path>
                        <path d="M125.757625,25.284738 C126.42067,25.284738 126.958175,25.8222426 126.958175,26.4852882 L126.958175,46.6202085 C126.958175,47.283254 126.42067,47.8207586 125.757625,47.8207586 C125.094579,47.8207586 124.557075,47.283254 124.557075,46.6202085 L124.557075,26.4852882 C124.557075,25.8222426 125.094579,25.284738 125.757625,25.284738 Z" id="power"></path>
                    </g>
                </g>
                <g id="Screen" transform="translate(7.290667, 5.973351)">
                    <mask id="mask-7" fill="white">
                        <use xlink:href="#path-6"></use>
                    </mask>
                    <use id="Screen-Mask" fill="#FFFFFF" xlink:href="#path-6"></use>
                    <rect id="Rectangle" fill="url(#linearGradient-8)" mask="url(#mask-7)" x="-0.29066747" y="0.0266494648" width="113" height="223"></rect>
                    <path d="M40.7067774,61.2266495 L40.7067774,50.1213695 L39.2055272,50.1213695 C39.1694147,50.4388095 39.0533386,50.7114495 38.8572991,50.9392895 C38.6612595,51.1671295 38.3659105,51.3412095 37.9712519,51.4615295 C37.5765934,51.5818495 37.0594101,51.6420095 36.4197021,51.6420095 L36.4197021,51.6420095 L36.4197021,52.9092095 L38.4162101,52.9092095 L38.4162101,61.2266495 L40.7067774,61.2266495 Z M51.470896,61.2266495 L51.470896,59.3373695 L45.767693,59.3373695 L45.767693,59.2375295 C45.767693,58.8996095 45.8708717,58.6103295 46.0772291,58.3696895 C46.2835865,58.1290495 46.5570101,57.9127295 46.8974998,57.7207295 C47.2379896,57.5287295 47.6107226,57.3405695 48.0156991,57.1562495 C48.4206755,56.9719295 48.8269417,56.7722495 49.2344975,56.5572095 C49.6420534,56.3421695 50.0160763,56.0912895 50.356566,55.8045695 C50.6970557,55.5178495 50.9704793,55.1722495 51.1768367,54.7677695 C51.3831941,54.3632895 51.4863728,53.8820095 51.4863728,53.3239295 C51.4863728,52.6532095 51.3212869,52.0669695 50.991115,51.5652095 C50.6609432,51.0634495 50.1927698,50.6717695 49.5865949,50.3901695 C48.98042,50.1085695 48.2594588,49.9677695 47.4237112,49.9677695 C46.4486725,49.9677695 45.6387196,50.1367295 44.9938527,50.4746495 C44.3489858,50.8125695 43.8653356,51.2695295 43.5429021,51.8455295 C43.2204687,52.4215295 43.054093,53.0628095 43.0437751,53.7693695 L43.0437751,53.7693695 L45.2027896,53.7693695 C45.2956504,53.1191295 45.5381204,52.6327295 45.9301995,52.3101695 C46.3222785,51.9876095 46.7994801,51.8263295 47.361804,51.8263295 C47.9034922,51.8263295 48.3303941,51.9671295 48.6425097,52.2487295 C48.9546253,52.5303295 49.1106831,52.8938495 49.1106831,53.3392895 C49.1106831,53.6874495 49.0049249,53.9895295 48.7934086,54.2455295 C48.5818922,54.5015295 48.30202,54.7332095 47.9537918,54.9405695 C47.6055637,55.1479295 47.2225128,55.3540095 46.804639,55.5588095 C46.3867652,55.7636095 45.9701812,55.9812095 45.5548869,56.2116095 C45.1395926,56.4420095 44.7578314,56.7095295 44.4096033,57.0141695 C44.0613751,57.3188095 43.7815029,57.6772095 43.5699865,58.0893695 C43.3584702,58.5015295 43.252712,58.9892095 43.252712,59.5524095 L43.252712,59.5524095 L43.252712,61.2266495 L51.470896,61.2266495 Z M55.4484352,55.8813695 L55.4484352,53.4775295 L52.9721462,53.4775295 L52.9721462,55.8813695 L55.4484352,55.8813695 Z M55.4484352,61.1805695 L55.4484352,58.7844095 L52.9721462,58.7844095 L52.9721462,61.1805695 L55.4484352,61.1805695 Z M64.3630755,61.2266495 L64.3630755,58.7690495 L66.0887394,58.7690495 L66.0887394,56.8874495 L64.3630755,56.8874495 L64.3630755,50.1213695 L62.1421538,50.1213695 L57.0425462,56.9258495 L57.0425462,58.7690495 L62.1963226,58.7690495 L62.1885842,61.2266495 L64.3630755,61.2266495 Z M62.1963226,56.8874495 L59.131915,56.8874495 L62.1963226,52.8170495 L62.1963226,56.8874495 Z M71.3198998,61.3956095 C72.3000975,61.3956095 73.1435835,61.1767295 73.8503576,60.7389695 C74.5571318,60.3012095 75.1001097,59.6407295 75.4792915,58.7575295 C75.8584732,57.8743295 76.0480641,56.7696895 76.0480641,55.4436095 C76.0480641,54.3325695 75.8636321,53.3661695 75.4947683,52.5444095 C75.1259044,51.7226495 74.5971135,51.0877695 73.9083956,50.6397695 C73.2196778,50.1917695 72.4006968,49.9677695 71.4514527,49.9677695 C70.6053873,49.9677695 69.8676595,50.1290495 69.2382694,50.4516095 C68.6088793,50.7741695 68.1187804,51.2196095 67.7679728,51.7879295 C67.4171652,52.3562495 67.2417614,53.0039295 67.2417614,53.7309695 C67.2417614,54.4528895 67.4081371,55.0762495 67.7408884,55.6010495 C68.0736398,56.1258495 68.532785,56.5303295 69.1183242,56.8144895 C69.7038633,57.0986495 70.3758147,57.2407295 71.1341782,57.2407295 C71.5520519,57.2407295 71.9312337,57.1856895 72.2717234,57.0756095 C72.6122131,56.9655295 72.9101417,56.8093695 73.165509,56.6071295 C73.4208763,56.4048895 73.620785,56.1680895 73.7652352,55.8967295 C73.8271424,56.7824895 73.7562071,57.4992895 73.5524291,58.0471295 C73.3486512,58.5949695 73.044274,58.9943295 72.6392975,59.2452095 C72.2343211,59.4960895 71.7635683,59.6215295 71.227039,59.6215295 C70.7420991,59.6215295 70.3397021,59.4871295 70.0198481,59.2183295 C69.6999941,58.9495295 69.4936367,58.6000895 69.4007759,58.1700095 L69.4007759,58.1700095 L67.2494998,58.1700095 C67.2959302,58.8202495 67.5100261,59.3872895 67.8917873,59.8711295 C68.2735485,60.3549695 68.7662268,60.7300095 69.3698223,60.9962495 C69.9734177,61.2624895 70.6234436,61.3956095 71.3198998,61.3956095 Z M71.5210983,55.4589695 C70.9690922,55.4589695 70.5228443,55.2989695 70.1823546,54.9789695 C69.8418648,54.6589695 69.67162,54.2096895 69.67162,53.6311295 C69.67162,53.2420095 69.7515835,52.8989695 69.9115105,52.6020095 C70.0714375,52.3050495 70.2906922,52.0746495 70.5692747,51.9108095 C70.8478572,51.7469695 71.1651318,51.6650495 71.5210983,51.6650495 C71.9080185,51.6650495 72.2472185,51.7597695 72.5386983,51.9492095 C72.8301782,52.1386495 73.0571713,52.4112895 73.2196778,52.7671295 C73.3821842,53.1229695 73.460858,53.5492095 73.4556991,54.0458495 C73.4556991,54.2762495 73.3602588,54.4989695 73.1693782,54.7140095 C72.9784975,54.9290495 72.7347379,55.1069695 72.4380991,55.2477695 C72.1414603,55.3885695 71.8357934,55.4589695 71.5210983,55.4589695 Z" id="12:49" fill="#FFFFFF" fill-rule="nonzero" mask="url(#mask-7)"></path>
                </g>
            </g>
        </g>
    </g>
</svg>