<?xml version="1.0" encoding="UTF-8" standalone="no"?>
<!DOCTYPE svg PUBLIC "-//W3C//DTD SVG 1.1//EN" "http://www.w3.org/Graphics/SVG/1.1/DTD/svg11.dtd">
<svg width="100%" height="100%" viewBox="0 0 285 400" version="1.1" xmlns="http://www.w3.org/2000/svg" xmlns:xlink="http://www.w3.org/1999/xlink" xml:space="preserve" xmlns:serif="http://www.serif.com/" style="fill-rule:evenodd;clip-rule:evenodd;stroke-linejoin:round;stroke-miterlimit:2;">
    <g transform="matrix(1,0,0,1,79.0209,80.1367)">
        <g id="Designs">
            <g id="Mobile---Home">
                <g id="iPhone-X-Mockup">
                    <g id="phone">
                        <g id="body">
                            <path id="path-1" d="M17.303,0.273L109.793,0.273C118.663,0.273 125.854,7.106 125.854,15.535L125.854,224.465C125.854,232.894 118.663,239.727 109.793,239.727L17.303,239.727C8.433,239.727 1.242,232.894 1.242,224.465L1.242,15.535C1.242,7.106 8.433,0.273 17.303,0.273Z"/>
                            <path id="path-11" serif:id="path-1" d="M17.303,0.273L109.793,0.273C118.663,0.273 125.854,7.106 125.854,15.535L125.854,224.465C125.854,232.894 118.663,239.727 109.793,239.727L17.303,239.727C8.433,239.727 1.242,232.894 1.242,224.465L1.242,15.535C1.242,7.106 8.433,0.273 17.303,0.273Z" style="fill:rgb(33,54,72);"/>
                        </g>
                        <g id="frame" transform="matrix(1,0,0,1,1.24198,0)">
                            <path id="reflect-frame-top" d="M108.909,0L15.648,0C11.294,0.263 7.279,2.235 3.602,5.915C5.966,3.867 10.184,1.125 15.761,1.125L108.796,1.125C114.373,1.125 118.591,3.867 120.955,5.915C117.278,2.235 113.263,0.263 108.909,0Z" style="fill:url(#_Linear1);"/>
                            <path id="reflect-frame-right" d="M122.089,222.082L122.089,16.791C122.089,11.283 120.049,9.247 118.832,7.939C117.615,6.632 117.563,5.965 119.312,6.952C121.06,7.939 124.557,10.815 124.557,16.791L124.557,222.082C124.557,228.059 121.06,230.934 119.312,231.921C117.563,232.908 117.615,232.241 118.832,230.934C120.049,229.626 122.089,227.59 122.089,222.082Z" style="fill:url(#_Linear2);"/>
                            <g id="reflect-frame-left" transform="matrix(-1,0,0,1,6.60303,0)">
                                <path d="M4.134,222.082L4.134,16.791C4.134,11.283 2.095,9.247 0.878,7.939C-0.339,6.632 -0.391,5.965 1.358,6.952C3.106,7.939 6.603,10.815 6.603,16.791L6.603,222.082C6.603,228.059 3.106,230.934 1.358,231.921C-0.391,232.908 -0.339,232.241 0.878,230.934C2.095,229.626 4.134,227.59 4.134,222.082Z" style="fill:url(#_Linear3);"/>
                            </g>
                        </g>
                        <g id="controls" transform="matrix(1,0,0,1,0,48.656)">
                            <path id="vol-" serif:id="vol+" d="M1.201,0.091C1.864,0.091 2.401,0.629 2.401,1.292L2.401,29.779C2.401,30.442 1.864,30.979 1.201,30.979C0.538,30.979 -0,30.442 0,29.779L0,1.292C-0,0.629 0.538,0.091 1.201,0.091Z" style="fill:rgb(46,66,60);"/>
                            <path id="power" d="M125.758,25.285C126.421,25.285 126.958,25.822 126.958,26.485L126.958,46.62C126.958,47.283 126.421,47.821 125.758,47.821C125.095,47.821 124.557,47.283 124.557,46.62L124.557,26.485C124.557,25.822 125.095,25.285 125.758,25.285Z" style="fill:rgb(46,66,60);"/>
                        </g>
                    </g>
                    <g id="Screen" transform="matrix(1,0,0,1,7.29067,5.97335)">
                        <path id="Screen-Mask" d="M45.271,0L9.284,0C3.913,0 0,3.63 0,8.372L0,211.119C0,217.301 6.047,222.779 12.884,222.779L99.619,222.779C106.205,222.779 112.503,217.259 112.503,211.119L112.503,8.92C112.503,3.237 108.251,0.034 103.219,0L66.661,0C66.523,0.023 64.012,1.047 62.95,3.63C61.889,6.214 59.753,8.273 57.415,8.273L54.7,8.273C53.588,8.273 50.662,7.202 49.18,3.63C47.699,0.058 45.409,0.023 45.271,0Z" style="fill:white;"/>
                        <rect id="Rectangle" x="-0.291" y="0.027" width="113" height="223" style="fill:url(#_Linear4);"/>
                        <path id="_12:49" serif:id="12:49" d="M40.707,61.227L40.707,50.121L39.206,50.121C39.169,50.439 39.053,50.711 38.857,50.939C38.661,51.167 38.366,51.341 37.971,51.462C37.577,51.582 37.059,51.642 36.42,51.642L36.42,52.909L38.416,52.909L38.416,61.227L40.707,61.227ZM51.471,61.227L51.471,59.337L45.768,59.337L45.768,59.238C45.768,58.9 45.871,58.61 46.077,58.37C46.284,58.129 46.557,57.913 46.897,57.721C47.238,57.529 47.611,57.341 48.016,57.156C48.421,56.972 48.827,56.772 49.234,56.557C49.642,56.342 50.016,56.091 50.357,55.805C50.697,55.518 50.97,55.172 51.177,54.768C51.383,54.363 51.486,53.882 51.486,53.324C51.486,52.653 51.321,52.067 50.991,51.565C50.661,51.063 50.193,50.672 49.587,50.39C48.98,50.109 48.259,49.968 47.424,49.968C46.449,49.968 45.639,50.137 44.994,50.475C44.349,50.813 43.865,51.27 43.543,51.846C43.22,52.422 43.054,53.063 43.044,53.769L45.203,53.769C45.296,53.119 45.538,52.633 45.93,52.31C46.322,51.988 46.799,51.826 47.362,51.826C47.903,51.826 48.33,51.967 48.643,52.249C48.955,52.53 49.111,52.894 49.111,53.339C49.111,53.687 49.005,53.99 48.793,54.246C48.582,54.502 48.302,54.733 47.954,54.941C47.606,55.148 47.223,55.354 46.805,55.559C46.387,55.764 45.97,55.981 45.555,56.212C45.14,56.442 44.758,56.71 44.41,57.014C44.061,57.319 43.782,57.677 43.57,58.089C43.358,58.502 43.253,58.989 43.253,59.552L43.253,61.227L51.471,61.227ZM55.448,55.881L55.448,53.478L52.972,53.478L52.972,55.881L55.448,55.881ZM55.448,61.181L55.448,58.784L52.972,58.784L52.972,61.181L55.448,61.181ZM64.363,61.227L64.363,58.769L66.089,58.769L66.089,56.887L64.363,56.887L64.363,50.121L62.142,50.121L57.043,56.926L57.043,58.769L62.196,58.769L62.189,61.227L64.363,61.227ZM62.196,56.887L59.132,56.887L62.196,52.817L62.196,56.887ZM71.32,61.396C72.3,61.396 73.144,61.177 73.85,60.739C74.557,60.301 75.1,59.641 75.479,58.758C75.858,57.874 76.048,56.77 76.048,55.444C76.048,54.333 75.864,53.366 75.495,52.544C75.126,51.723 74.597,51.088 73.908,50.64C73.22,50.192 72.401,49.968 71.451,49.968C70.605,49.968 69.868,50.129 69.238,50.452C68.609,50.774 68.119,51.22 67.768,51.788C67.417,52.356 67.242,53.004 67.242,53.731C67.242,54.453 67.408,55.076 67.741,55.601C68.074,56.126 68.533,56.53 69.118,56.814C69.704,57.099 70.376,57.241 71.134,57.241C71.552,57.241 71.931,57.186 72.272,57.076C72.612,56.966 72.91,56.809 73.166,56.607C73.421,56.405 73.621,56.168 73.765,55.897C73.827,56.782 73.756,57.499 73.552,58.047C73.349,58.595 73.044,58.994 72.639,59.245C72.234,59.496 71.764,59.622 71.227,59.622C70.742,59.622 70.34,59.487 70.02,59.218C69.7,58.95 69.494,58.6 69.401,58.17L67.249,58.17C67.296,58.82 67.51,59.387 67.892,59.871C68.274,60.355 68.766,60.73 69.37,60.996C69.973,61.262 70.623,61.396 71.32,61.396ZM71.521,55.459C70.969,55.459 70.523,55.299 70.182,54.979C69.842,54.659 69.672,54.21 69.672,53.631C69.672,53.242 69.752,52.899 69.912,52.602C70.071,52.305 70.291,52.075 70.569,51.911C70.848,51.747 71.165,51.665 71.521,51.665C71.908,51.665 72.247,51.76 72.539,51.949C72.83,52.139 73.057,52.411 73.22,52.767C73.382,53.123 73.461,53.549 73.456,54.046C73.456,54.276 73.36,54.499 73.169,54.714C72.978,54.929 72.735,55.107 72.438,55.248C72.141,55.389 71.836,55.459 71.521,55.459Z" style="fill:white;fill-rule:nonzero;"/>
                    </g>
                </g>
            </g>
        </g>
    </g>
    <defs>
        <linearGradient id="_Linear1" x1="0" y1="0" x2="1" y2="0" gradientUnits="userSpaceOnUse" gradientTransform="matrix(3.62219e-16,5.91549,-5.91549,3.62219e-16,62.2785,0)"><stop offset="0" style="stop-color:rgb(69,69,69);stop-opacity:0.39"/><stop offset="0.23" style="stop-color:rgb(153,153,153);stop-opacity:0.39"/><stop offset="1" style="stop-color:white;stop-opacity:0.39"/></linearGradient>
        <linearGradient id="_Linear2" x1="0" y1="0" x2="1" y2="0" gradientUnits="userSpaceOnUse" gradientTransform="matrix(-4.57579,5.60373e-16,-5.60373e-16,-4.57579,124.557,119.437)"><stop offset="0" style="stop-color:white;stop-opacity:0"/><stop offset="0.22" style="stop-color:rgb(186,186,186);stop-opacity:0.75"/><stop offset="0.55" style="stop-color:white;stop-opacity:0"/><stop offset="1" style="stop-color:white;stop-opacity:0"/></linearGradient>
        <linearGradient id="_Linear3" x1="0" y1="0" x2="1" y2="0" gradientUnits="userSpaceOnUse" gradientTransform="matrix(-4.5831,5.61268e-16,-5.61268e-16,-4.5831,6.60303,119.437)"><stop offset="0" style="stop-color:white;stop-opacity:0"/><stop offset="0.22" style="stop-color:rgb(186,186,186);stop-opacity:0.75"/><stop offset="0.55" style="stop-color:white;stop-opacity:0"/><stop offset="1" style="stop-color:white;stop-opacity:0"/></linearGradient>
        <linearGradient id="_Linear4" x1="0" y1="0" x2="1" y2="0" gradientUnits="userSpaceOnUse" gradientTransform="matrix(1.35485e-14,221.264,-221.264,1.35485e-14,56.2093,0.0266495)"><stop offset="0" style="stop-color:rgb(156,182,205);stop-opacity:1"/><stop offset="0.42" style="stop-color:rgb(154,179,202);stop-opacity:1"/><stop offset="0.72" style="stop-color:rgb(85,116,150);stop-opacity:1"/><stop offset="1" style="stop-color:rgb(71,81,120);stop-opacity:1"/></linearGradient>
    </defs>
</svg>
